<?xml version="1.0" encoding="UTF-8"?>
<svg version="1.1" xmlns="http://www.w3.org/2000/svg" width="460" height="135">
<path d="M0 0 C4.95 0 9.9 0 15 0 C15 23.43 15 46.86 15 71 C10.05 71 5.1 71 0 71 C-0.33 70.34 -0.66 69.68 -1 69 C-1.7425 69.474375 -2.485 69.94875 -3.25 70.4375 C-8.27743767 73.29399868 -13.30782649 73.90697492 -19.01953125 72.50390625 C-24.55515677 70.63047276 -29.24594924 68.0450757 -32.2578125 62.81640625 C-34.1024626 58.8884625 -35 56.41936941 -35 52 C-44.57 52 -54.14 52 -64 52 C-62.52360997 57.06008639 -62.52360997 57.06008639 -59 59 C-53.43156024 59.44193966 -51.40406801 59.37645214 -47 56 C-42.41410306 56.19938682 -38.988986 57.81555529 -35 60 C-35.74600577 64.26420581 -37.55988235 65.94513045 -40.83984375 68.60546875 C-47.16638131 72.6896892 -54.80048169 74.04935733 -62.1484375 72.56640625 C-69.46133697 70.5572308 -74.71665806 66.38818482 -78.9375 60.125 C-81.58285163 52.34455404 -81.60928942 45.51727866 -78 38 C-74.02793289 32.37469415 -68.61360752 28.81847146 -62 27 C-55.49075666 26.09793163 -48.78850651 26.74128522 -43 30 C-39.41881283 33.2804768 -36.68496344 36.97255484 -34 41 C-33.72027344 40.48050781 -33.44054688 39.96101563 -33.15234375 39.42578125 C-29.96379589 33.87914332 -26.35574254 29.37319594 -20.0546875 27.38671875 C-13.33913638 26.12276521 -8.03095029 26.85888006 -2 30 C-1.67 30.33 -1.34 30.66 -1 31 C-0.67 20.77 -0.34 10.54 0 0 Z M-62.4375 39.9375 C-64.10064295 41.70159366 -64.10064295 41.70159366 -64 43 C-59.05 43 -54.1 43 -49 43 C-50.5 39 -50.5 39 -53 38 C-58.1216305 37.48108064 -58.1216305 37.48108064 -62.4375 39.9375 Z M-18 46 C-19.22011399 49.66034196 -19.35263082 51.22421219 -17.75 54.75 C-16.02635231 57.21081851 -16.02635231 57.21081851 -13 59 C-8.78821757 59.46797583 -6.71400886 59.46565795 -3.125 57.125 C-0.6528747 54.6528747 -0.09494021 53.6962282 0.375 50.25 C-0.14714789 45.72471826 -1.59478165 43.97956605 -5 41 C-10.82158978 39.34507226 -14.49137366 41.10918752 -18 46 Z " fill="#161616" transform="translate(81,40)"/>
<path d="M0 0 C7.58032398 -0.24742445 15.15829434 -0.4287612 22.74169922 -0.54931641 C25.32024067 -0.59957089 27.89849764 -0.667789 30.47607422 -0.75439453 C34.1852831 -0.87589078 37.89072549 -0.93244306 41.6015625 -0.9765625 C42.75177887 -1.02817535 43.90199524 -1.07978821 45.08706665 -1.13296509 C48.35061918 -1.13524608 50.90364131 -1.04041999 54 0 C56.81260971 3.01583162 58.39358769 6.23223294 60 10 C60.55429687 10.97195312 61.10859375 11.94390625 61.6796875 12.9453125 C62.27136719 14.02425781 62.27136719 14.02425781 62.875 15.125 C63.28492188 15.87007812 63.69484375 16.61515625 64.1171875 17.3828125 C64.40851563 17.91648437 64.69984375 18.45015625 65 19 C68.00036255 15.41802871 69.77721493 11.46837551 71.6875 7.25 C72.780625 4.8575 73.87375 2.465 75 0 C80.94 0 86.88 0 93 0 C91.51839197 4.44482409 90.08047889 8.03213259 87.9453125 12.12109375 C87.64751389 12.69439926 87.34971527 13.26770477 87.04289246 13.85838318 C86.0744487 15.7203054 85.09984068 17.57892023 84.125 19.4375 C83.45038864 20.73108636 82.77615756 22.02487111 82.10229492 23.31884766 C80.73412012 25.94443123 79.36345495 28.56869099 77.99072266 31.19189453 C76.14677451 34.71665391 74.31236874 38.24630536 72.48046875 41.77734375 C71.42463394 43.80997624 70.36865313 45.84253289 69.3125 47.875 C68.59247803 49.26223267 68.59247803 49.26223267 67.85791016 50.67749023 C67.40593262 51.54446533 66.95395508 52.41144043 66.48828125 53.3046875 C66.10196533 54.04702637 65.71564941 54.78936523 65.31762695 55.55419922 C63.60392213 58.73520624 61.792675 61.86281875 60 65 C54.06 65 48.12 65 42 65 C43.39681563 60.80955312 44.54867302 57.72908784 46.63671875 53.99609375 C47.13107422 53.09052734 47.62542969 52.18496094 48.13476562 51.25195312 C49.17431649 49.36768546 50.22126891 47.48748325 51.27539062 45.61132812 C51.76587891 44.70705078 52.25636719 43.80277344 52.76171875 42.87109375 C53.4417395 41.64797485 53.4417395 41.64797485 54.13549805 40.40014648 C55.22037268 37.38817176 54.98850844 36.03123375 54 33 C53.01319833 30.98040678 51.95181902 28.99643882 50.83984375 27.04296875 C50.21142578 25.93115234 49.58300781 24.81933594 48.93554688 23.67382812 C48.26968046 22.51163325 47.60366294 21.34952494 46.9375 20.1875 C46.26694627 19.00621783 45.59701769 17.82458055 44.92773438 16.64257812 C43.29127213 13.75816626 41.64851754 10.8775335 40 8 C37.27536141 10.60125873 35.05178964 13.18205924 32.984375 16.328125 C32.45585937 17.12734375 31.92734375 17.9265625 31.3828125 18.75 C30.84398437 19.575 30.30515625 20.4 29.75 21.25 C29.19570313 22.09046875 28.64140625 22.9309375 28.0703125 23.796875 C26.70933016 25.86181372 25.35409304 27.93053705 24 30 C29.61 30.33 35.22 30.66 41 31 C41 34.96 41 38.92 41 43 C26.81 43.33 12.62 43.66 -2 44 C-2 39.13368764 -0.18171032 36.820685 2.5 33 C3.41419059 31.66545232 4.32825116 30.33081556 5.2421875 28.99609375 C5.70334961 28.3294873 6.16451172 27.66288086 6.63964844 26.97607422 C8.66945347 24.02753834 10.64591438 21.04531542 12.625 18.0625 C13.73875 16.391875 14.8525 14.72125 16 13 C10.72 12.67 5.44 12.34 0 12 C0 8.04 0 4.08 0 0 Z " fill="#0667F6" transform="translate(329,68)"/>
<path d="M0 0 C3.58118717 3.2804768 6.31503656 6.97255484 9 11 C9.53625 10.113125 10.0725 9.22625 10.625 8.3125 C14.673901 2.30993348 20.0061006 -1.3475952 27 -3 C34.57145282 -3.98348053 41.30791804 -2.21524918 47.8125 1.6875 C53.84759059 8.06745291 54 12.83710217 54 22 C44.1 22 34.2 22 24 22 C26.16666667 27.83333333 26.16666667 27.83333333 29 29 C34.54349379 29.35764476 36.60562074 29.3690241 41 26 C46.19169283 26.11537095 49.70245071 28.33551944 54 31 C50.55231025 36.83455188 46.82323651 40.35873322 40.125 42.25 C32.59776156 43.83543352 25.92931026 43.41636725 19 40 C13.41452476 36.23418307 9.95218749 32.46662107 8 26 C8 24.68 8 23.36 8 22 C-1.57 22 -11.14 22 -21 22 C-19.52360997 27.06008639 -19.52360997 27.06008639 -16 29 C-10.43156024 29.44193966 -8.40406801 29.37645214 -4 26 C0.58589694 26.19938682 4.011014 27.81555529 8 30 C7.25380552 34.2652845 5.44005631 35.94746979 2.15625 38.60546875 C-3.65818316 42.3658902 -11.13738255 44.11777481 -18 43 C-26.12690101 41.04641803 -31.39017817 36.94347228 -36 30 C-38.60923673 24.50907612 -38.29540589 18.83476939 -37 13 C-34.84190715 7.00529764 -30.61326947 2.12898035 -25.1171875 -1.109375 C-17.2443341 -4.48800844 -7.5057374 -4.22545217 0 0 Z M-19.4375 9.9375 C-21.10064295 11.70159366 -21.10064295 11.70159366 -21 13 C-16.05 13 -11.1 13 -6 13 C-7.5 9 -7.5 9 -10 8 C-15.1216305 7.48108064 -15.1216305 7.48108064 -19.4375 9.9375 Z M25.5625 9.9375 C23.89935705 11.70159366 23.89935705 11.70159366 24 13 C28.95 13 33.9 13 39 13 C37.5 9 37.5 9 35 8 C29.8783695 7.48108064 29.8783695 7.48108064 25.5625 9.9375 Z " fill="#0667F7" transform="translate(274,70)"/>
<path d="M0 0 C6.24587414 0.70370735 12.48936226 1.42307607 18.73046875 2.16796875 C23.29216593 2.70709492 27.84816285 3.17163363 32.42578125 3.55078125 C44.76435649 4.67129176 51.81217951 6.33604647 61 15 C63.11206796 16.64773141 65.23173194 18.26970275 67.375 19.875 C74.29772299 25.18857215 81.14766466 30.59620931 88 36 C87.67 37.32 87.34 38.64 87 40 C84.03 40 81.06 40 78 40 C76.51342353 43.5594526 75.0370576 47.12305348 73.5625 50.6875 C73.14162109 51.69490234 72.72074219 52.70230469 72.28710938 53.74023438 C71.88427734 54.71669922 71.48144531 55.69316406 71.06640625 56.69921875 C70.5086853 58.04246216 70.5086853 58.04246216 69.93969727 59.4128418 C68.15681596 64.32143968 67.7770804 69.12177099 67.4375 74.3125 C67.31181641 76.19388672 67.31181641 76.19388672 67.18359375 78.11328125 C67.12300781 79.06589844 67.06242187 80.01851563 67 81 C65.35153231 80.55123384 63.70626545 80.09069512 62.0625 79.625 C61.14597656 79.36976562 60.22945313 79.11453125 59.28515625 78.8515625 C57 78 57 78 56 76 C56.70703125 74.30078125 56.70703125 74.30078125 57.8125 72.3125 C59.27316803 69.5712463 60.33870648 67.08246606 61.0625 64.0625 C61.371875 63.051875 61.68125 62.04125 62 61 C63.485 60.505 63.485 60.505 65 60 C65.85204049 58.30800405 65.85204049 58.30800405 66.375 56.1875 C68.15772806 50.27685082 70.57265501 44.67020115 73 39 C72.34 39 71.68 39 71 39 C70.75354736 39.63091553 70.50709473 40.26183105 70.25317383 40.91186523 C69.12653709 43.76224304 67.97006133 46.59954854 66.8125 49.4375 C66.42513672 50.43072266 66.03777344 51.42394531 65.63867188 52.44726562 C65.05375977 53.86362305 65.05375977 53.86362305 64.45703125 55.30859375 C64.10616455 56.18314209 63.75529785 57.05769043 63.39379883 57.95874023 C62 60 62 60 59.52612305 60.81884766 C56.49235941 61.03640372 53.97613769 60.55876874 51 59.9375 C44.951997 58.90089563 39.96281781 59.29566977 33.97265625 60.4921875 C30.82026741 61.03070333 28.18265417 61.39949634 25 61 C23.3828125 59.09375 23.3828125 59.09375 22.125 56.5 C17.55947024 48.09419391 11.31618759 42.6004442 3 38 C3.62079424 31.8477699 5.5012232 26.95336842 8.00390625 21.34179688 C9.08795724 18.79764849 10.00106898 16.59969982 9.99609375 13.80859375 C8.49716596 11.08701113 6.39689313 9.61789352 3.9375 7.75 C3.01839844 7.04359375 2.09929687 6.3371875 1.15234375 5.609375 C0.44207031 5.07828125 -0.26820313 4.5471875 -1 4 C-0.67 2.68 -0.34 1.36 0 0 Z M8 5 C12.23386995 9.48841123 16.92300503 13.18659924 21.8125 16.9375 C22.58142578 17.53240234 23.35035156 18.12730469 24.14257812 18.74023438 C25.68030794 19.92759537 27.22368059 21.10768558 28.77270508 22.28027344 C30.20901847 23.38927174 31.62055984 24.53149696 32.9987793 25.71191406 C38.15295356 29.99829699 42.58619615 31.16613516 49.1875 31.875 C50.06341797 31.99101563 50.93933594 32.10703125 51.84179688 32.2265625 C55.90854157 32.7445406 59.89323549 33.15304712 64 33 C57.27162017 27.51579746 48.42006356 23.95815432 40 22 C39.67 20.35 39.34 18.7 39 17 C41.94315713 16.55852643 44.13693245 16.42198228 46.67651367 18.12280273 C47.56947144 18.86445679 47.56947144 18.86445679 48.48046875 19.62109375 C53.56972394 23.5818772 59.10021223 26.478122 64.8125 29.4375 C65.84826172 29.99115234 66.88402344 30.54480469 67.95117188 31.11523438 C69.43907227 31.89157227 69.43907227 31.89157227 70.95703125 32.68359375 C71.85397705 33.15337646 72.75092285 33.62315918 73.67504883 34.10717773 C76.0982341 35.3202026 76.0982341 35.3202026 79 34 C77.77990234 33.03513672 77.77990234 33.03513672 76.53515625 32.05078125 C75.99294434 31.62104004 75.45073242 31.19129883 74.89208984 30.74853516 C73.64344196 29.7684782 72.38684541 28.79848527 71.12353516 27.83740234 C67.72280227 25.23480904 64.54954399 22.61164088 61.55078125 19.55078125 C47.75646023 6.27558112 26.47463415 5 8 5 Z " fill="#010101" transform="translate(370,4)"/>
<path d="M0 0 C4.95 0 9.9 0 15 0 C15 10.23 15 20.46 15 31 C16.65 30.01 18.3 29.02 20 28 C25.59196489 26.16095992 31.2203063 26.40676877 36.75 28.25 C43.27213892 31.76192096 47.36043649 35.69299179 49.59375 42.921875 C51.30942674 51.69822138 49.65315317 58.8192738 44.9375 66.25 C40.69878976 70.93691223 34.46888874 72.70203067 28.375 73.4375 C24.33457457 72.91374115 18.98224973 71.98224973 16 69 C15.505 69.99 15.505 69.99 15 71 C10.05 71 5.1 71 0 71 C0 47.57 0 24.14 0 0 Z M17.5625 42.875 C14.95567644 46.42028004 14.49007806 48.58067649 15 53 C17.5650339 57.33535741 17.5650339 57.33535741 21.9375 59.55078125 C25.85009577 59.81013892 27.68785252 59.20809832 31 57 C33.21925086 53.67112371 33.75890933 51.86063492 33.4765625 47.9375 C32.60276841 44.38502568 30.9838283 42.98921886 28 41 C23.96791388 40.09777083 20.92860421 40.28568907 17.5625 42.875 Z " fill="#0567F7" transform="translate(151,40)"/>
<path d="M0 0 C5.28 0 10.56 0 16 0 C16.02578125 1.90265625 16.0515625 3.8053125 16.078125 5.765625 C16.13439902 8.26043983 16.1917465 10.75523061 16.25 13.25 C16.26417969 14.50425781 16.27835938 15.75851563 16.29296875 17.05078125 C16.32519531 18.25605469 16.35742188 19.46132812 16.390625 20.703125 C16.41157227 21.81333008 16.43251953 22.92353516 16.45410156 24.06738281 C17.11823647 27.63517733 18.0942756 28.87224733 21 31 C24.62649951 31.08916154 24.62649951 31.08916154 28 30 C30.32452624 26.51321064 30.29773734 24.93032429 30.4140625 20.80078125 C30.45273438 19.59228516 30.49140625 18.38378906 30.53125 17.13867188 C30.5621875 15.87603516 30.593125 14.61339844 30.625 13.3125 C30.66367188 12.03826172 30.70234375 10.76402344 30.7421875 9.45117188 C30.83657398 6.30102306 30.91938035 3.1505312 31 0 C36.28 0 41.56 0 47 0 C47.06930904 3.98398634 47.12890491 7.96641389 47.16479492 11.95068359 C47.18709408 13.96336248 47.22523653 15.97584584 47.26367188 17.98828125 C47.32797073 26.51859576 47.24541168 33.07134375 41.625 39.875 C34.92138573 45.30173536 26.33206149 45.68516218 18 45 C12.31130763 43.87712313 6.95843092 42.43824073 3 38 C-0.84785476 30.44370552 -0.34184849 22.76686648 -0.1875 14.5 C-0.17242613 13.09116014 -0.1587425 11.68230468 -0.14648438 10.2734375 C-0.11129965 6.84879098 -0.05749832 3.42434456 0 0 Z " fill="#151616" transform="translate(100,68)"/>
<path d="M0 0 C-0.53484401 5.34844008 -2.46690767 9.35796103 -5 14 C-5.57621094 13.84015625 -6.15242188 13.6803125 -6.74609375 13.515625 C-10.30439157 12.701595 -13.34162389 12.76772215 -17 13 C-19.67431489 14.81163267 -19.95920359 15.87761077 -21 19 C-21.14835948 20.77166975 -21.24770018 22.54767612 -21.31640625 24.32421875 C-21.35830078 25.35224609 -21.40019531 26.38027344 -21.44335938 27.43945312 C-21.48267578 28.51130859 -21.52199219 29.58316406 -21.5625 30.6875 C-21.60568359 31.77095703 -21.64886719 32.85441406 -21.69335938 33.97070312 C-21.79946742 36.64698385 -21.90024055 39.32347511 -22 42 C-26.95 42 -31.9 42 -37 42 C-37.68564382 27.56983469 -38.2833719 13.40228468 -37 -1 C-32.05 -1 -27.1 -1 -22 -1 C-21.67 0.32 -21.34 1.64 -21 3 C-20.236875 2.360625 -19.47375 1.72125 -18.6875 1.0625 C-12.7943423 -3.46015591 -6.63407029 -2.58890548 0 0 Z " fill="#0768F6" transform="translate(240,69)"/>
<path d="M0 0 C-0.33 0.66 -0.66 1.32 -1 2 C-1.639375 2.0825 -2.27875 2.165 -2.9375 2.25 C-3.618125 2.4975 -4.29875 2.745 -5 3 C-6.3045656 5.99615946 -6.3045656 5.99615946 -7 9 C-7.61488281 8.96519531 -8.22976563 8.93039063 -8.86328125 8.89453125 C-10.07564453 8.85392578 -10.07564453 8.85392578 -11.3125 8.8125 C-12.11300781 8.77769531 -12.91351563 8.74289063 -13.73828125 8.70703125 C-16.47851584 9.06198392 -17.29171079 9.89366282 -19 12 C-16.87506859 12.02693575 -14.75004088 12.04636628 -12.625 12.0625 C-11.44164062 12.07410156 -10.25828125 12.08570312 -9.0390625 12.09765625 C-6.08078479 12.21466593 -6.08078479 12.21466593 -4 11 C-4 11.99 -4 12.98 -4 14 C-9.61 14 -15.22 14 -21 14 C-20 9 -20 9 -19 6 C-21.31 5.67 -23.62 5.34 -26 5 C-26 5.66 -26 6.32 -26 7 C-28.64738916 8.4606285 -29.89448334 9 -33 9 C-33.66 14.94 -34.32 20.88 -35 27 C-35.33 27 -35.66 27 -36 27 C-37.23998592 20.01098842 -37.20065945 14.46366941 -34 8 C-25.28820764 -3.78889333 -13.04156598 -5.79625155 0 0 Z " fill="#0A67F1" transform="translate(273,70)"/>
<path d="M0 0 C1.53508028 2.43338652 2.03088304 3.67124507 1.7578125 6.578125 C1.54898437 7.45984375 1.34015625 8.3415625 1.125 9.25 C0.92132813 10.14203125 0.71765625 11.0340625 0.5078125 11.953125 C0.25644531 12.96632813 0.25644531 12.96632813 0 14 C-1.32 14 -2.64 14 -4 14 C-4 15.32 -4 16.64 -4 18 C-6.97 18 -9.94 18 -13 18 C-13.33 16.35 -13.66 14.7 -14 13 C-13.01 13 -12.02 13 -11 13 C-11 12.34 -11 11.68 -11 11 C-11.99 10.67 -12.98 10.34 -14 10 C-12.75023244 6.34683329 -12.32901247 5.21934164 -9 3 C-8.01 3.33 -7.02 3.66 -6 4 C-5.67 3.34 -5.34 2.68 -5 2 C-3.35636866 1.27840576 -1.68949614 0.60648579 0 0 Z " fill="#0267FB" transform="translate(392,114)"/>
<path d="M0 0 C0.33 0 0.66 0 1 0 C1 21.78 1 43.56 1 66 C4.96 66 8.92 66 13 66 C13.33 64.68 13.66 63.36 14 62 C17.875 63.75 17.875 63.75 19 66 C17.515 65.505 17.515 65.505 16 65 C15.505 65.99 15.505 65.99 15 67 C10.05 67 5.1 67 0 67 C0 44.89 0 22.78 0 0 Z " fill="#2976E9" transform="translate(151,44)"/>
<path d="M0 0 C0.87840996 3.09720845 0.99435406 4.90645403 0 8 C0.66 8.33 1.32 8.66 2 9 C2 9.66 2 10.32 2 11 C1.01 11 0.02 11 -1 11 C-0.67 12.65 -0.34 14.3 0 16 C2.97 16 5.94 16 9 16 C9 14.68 9 13.36 9 12 C9.99 12.33 10.98 12.66 12 13 C11.34 14.32 10.68 15.64 10 17 C4.06 17 -1.88 17 -8 17 C-6.51102715 12.53308145 -5.13068235 9.14599898 -2.875 5.125 C-2.06675781 3.67480469 -2.06675781 3.67480469 -1.2421875 2.1953125 C-0.83226562 1.47085938 -0.42234375 0.74640625 0 0 Z " fill="#0D67EC" transform="translate(379,116)"/>
<path d="M0 0 C5.61 0 11.22 0 17 0 C17 3.96 17 7.92 17 12 C2.81 12.33 -11.38 12.66 -26 13 C-26 9 -26 9 -24.5 7.25 C-23.7575 6.63125 -23.7575 6.63125 -23 6 C-23 7.32 -23 8.64 -23 10 C-3.695 10.495 -3.695 10.495 16 11 C16 7.7 16 4.4 16 1 C10.72 1 5.44 1 0 1 C0 0.67 0 0.34 0 0 Z " fill="#186ADF" transform="translate(353,99)"/>
<path d="M0 0 C3.3112251 0.92714303 6.11406699 2.22615573 9.125 3.875 C8.65294881 8.12346075 6.23622478 10.14319288 3.125 12.875 C2.465 12.875 1.805 12.875 1.125 12.875 C-0.50450412 8.75331311 -1.13764601 6.16799643 0.125 1.875 C-0.473125 2.225625 -1.07125 2.57625 -1.6875 2.9375 C-3.875 3.875 -3.875 3.875 -6.875 2.875 C-4.45739769 0.55038239 -3.41360795 -0.14841774 0 0 Z " fill="#1168E6" transform="translate(272.875,96.125)"/>
<path d="M0 0 C10.23 0 20.46 0 31 0 C31.33 2.31 31.66 4.62 32 7 C32.66 7 33.32 7 34 7 C34.495 9.97 34.495 9.97 35 13 C32.26629955 10.63907689 31.08902355 8.43461272 30 5 C30 3.68 30 2.36 30 1 C20.43 1 10.86 1 1 1 C2.47639003 6.06008639 2.47639003 6.06008639 6 8 C7.9896995 8.39013716 9.99019869 8.73202649 12 9 C11.67 9.66 11.34 10.32 11 11 C8.69 11 6.38 11 4 11 C4 10.34 4 9.68 4 9 C3.34 9 2.68 9 2 9 C0 6 0 6 0 0 Z " fill="#146DEC" transform="translate(252,91)"/>
<path d="M0 0 C-0.33 0.99 -0.66 1.98 -1 3 C-1.61488281 2.96519531 -2.22976563 2.93039063 -2.86328125 2.89453125 C-4.07564453 2.85392578 -4.07564453 2.85392578 -5.3125 2.8125 C-6.11300781 2.77769531 -6.91351563 2.74289063 -7.73828125 2.70703125 C-10.47851584 3.06198392 -11.29171079 3.89366282 -13 6 C-10.87506859 6.02693575 -8.75004088 6.04636628 -6.625 6.0625 C-4.84996094 6.07990234 -4.84996094 6.07990234 -3.0390625 6.09765625 C-0.08078479 6.21466593 -0.08078479 6.21466593 2 5 C2 5.99 2 6.98 2 8 C-3.61 8 -9.22 8 -15 8 C-14 3 -14 3 -12 0 C-9.6875 -0.546875 -9.6875 -0.546875 -7 -0.75 C-6.113125 -0.82734375 -5.22625 -0.9046875 -4.3125 -0.984375 C-2 -1 -2 -1 0 0 Z " fill="#1B6ADE" transform="translate(267,76)"/>
<path d="M0 0 C0.99 0.33 1.98 0.66 3 1 C3.22174933 2.45635371 3.42698698 3.91522956 3.625 5.375 C3.74101562 6.18710938 3.85703125 6.99921875 3.9765625 7.8359375 C3.98429687 8.55007812 3.99203125 9.26421875 4 10 C3.34 10.66 2.68 11.32 2 12 C1.67 12.99 1.34 13.98 1 15 C-1.0625 15.6875 -1.0625 15.6875 -3 16 C-1.19587629 10.32989691 -1.19587629 10.32989691 0.1875 8 C1.3537273 5.12928665 0.67228985 2.95807533 0 0 Z " fill="#1968DE" transform="translate(383,100)"/>
<path d="M0 0 C0 4.08481881 -1.70119331 5.84704653 -4 9.1875 C-4.7425 10.27417969 -5.485 11.36085938 -6.25 12.48046875 C-6.8275 13.31191406 -7.405 14.14335938 -8 15 C-8.66 13.68 -9.32 12.36 -10 11 C-8.625 9.5 -8.625 9.5 -7 8 C-6.34 8 -5.68 8 -5 8 C-5 7.01 -5 6.02 -5 5 C-4.34 5 -3.68 5 -3 5 C-3 4.01 -3 3.02 -3 2 C-2.01 1.34 -1.02 0.68 0 0 Z " fill="#1A68DE" transform="translate(367,74)"/>
<path d="M0 0 C0.33 0 0.66 0 1 0 C1 1.65 1 3.3 1 5 C5.62 5 10.24 5 15 5 C15 3.68 15 2.36 15 1 C15.99 1.33 16.98 1.66 18 2 C17.34 3.32 16.68 4.64 16 6 C10.06 6 4.12 6 -2 6 C-1.34 4.02 -0.68 2.04 0 0 Z " fill="#2068D4" transform="translate(373,127)"/>
<path d="M0 0 C0.99 0 1.98 0 3 0 C1.55676531 4.73789165 -0.37226733 8.98858151 -2.625 13.375 C-2.94984375 14.01566406 -3.2746875 14.65632813 -3.609375 15.31640625 C-4.40257407 16.87947501 -5.20077031 18.44000622 -6 20 C-7 17 -7 17 -5.8203125 14.2578125 C-5.26085937 13.22398438 -4.70140625 12.19015625 -4.125 11.125 C-2.10850262 7.38275602 -0.60786827 4.22390517 0 0 Z " fill="#236AD6" transform="translate(399,106)"/>
<path d="M0 0 C3.875 1.75 3.875 1.75 5 4 C4.01 3.67 3.02 3.34 2 3 C1.67 3.66 1.34 4.32 1 5 C-3.62 5 -8.24 5 -13 5 C-13 4.67 -13 4.34 -13 4 C-9.04 4 -5.08 4 -1 4 C-0.67 2.68 -0.34 1.36 0 0 Z " fill="#176AE1" transform="translate(165,106)"/>
<path d="M0 0 C0.495 0.78375 0.99 1.5675 1.5 2.375 C4.85744237 5.90031449 7.27291749 6.13336821 12 7 C11.67 7.66 11.34 8.32 11 9 C8.69 9 6.38 9 4 9 C4 8.34 4 7.68 4 7 C3.34 7 2.68 7 2 7 C0 4 0 4 0 0 Z " fill="#1A67DC" transform="translate(252,93)"/>
<path d="M0 0 C3.3502463 3.81234923 5.16974789 7.33285711 7 12 C5.68 12.33 4.36 12.66 3 13 C2.87625 11.865625 2.7525 10.73125 2.625 9.5625 C2.41875 8.386875 2.2125 7.21125 2 6 C1.34 5.67 0.68 5.34 0 5 C0 3.35 0 1.7 0 0 Z " fill="#1A66DF" transform="translate(388,78)"/>
<path d="M0 0 C0.66 0 1.32 0 2 0 C2 0.66 2 1.32 2 2 C2.66 2 3.32 2 4 2 C7.125 8.625 7.125 8.625 6 12 C4.99466333 10.37829621 3.99588093 8.75252763 3 7.125 C2.443125 6.22007813 1.88625 5.31515625 1.3125 4.3828125 C0 2 0 2 0 0 Z " fill="#1D67D3" transform="translate(376,87)"/>
<path d="M0 0 C-1.32 0.33 -2.64 0.66 -4 1 C-4 1.66 -4 2.32 -4 3 C-6.31 3.66 -8.62 4.32 -11 5 C-4.75324675 -1.58441558 -4.75324675 -1.58441558 0 0 Z " fill="#1964E2" transform="translate(255,69)"/>
<path d="M0 0 C1.485 0.99 1.485 0.99 3 2 C5.51584891 2.24150773 5.51584891 2.24150773 8.1875 2.125 C9.53908203 2.09792969 9.53908203 2.09792969 10.91796875 2.0703125 C11.94857422 2.03550781 11.94857422 2.03550781 13 2 C13 2.66 13 3.32 13 4 C8.71 4 4.42 4 0 4 C0 2.68 0 1.36 0 0 Z " fill="#1966E0" transform="translate(168,96)"/>
<path d="M0 0 C0.66 0.33 1.32 0.66 2 1 C2 2.32 2 3.64 2 5 C1.01 5 0.02 5 -1 5 C-1.12375 5.639375 -1.2475 6.27875 -1.375 6.9375 C-1.58125 7.618125 -1.7875 8.29875 -2 9 C-2.99 9.495 -2.99 9.495 -4 10 C-2.8905928 6.51329166 -1.73662334 3.22515763 0 0 Z " fill="#196ADF" transform="translate(399,79)"/>
<path d="M0 0 C2.97 0.495 2.97 0.495 6 1 C5.67 2.98 5.34 4.96 5 7 C1.125 2.25 1.125 2.25 0 0 Z " fill="#1E6BDA" transform="translate(234,68)"/>
<path d="M0 0 C-0.99 0 -1.98 0 -3 0 C-3.268125 0.61875 -3.53625 1.2375 -3.8125 1.875 C-5 4 -5 4 -8 6 C-7.39816251 3.97954558 -6.72693904 1.97888961 -6 0 C-3.50907189 -1.24546405 -2.58919267 -0.7767578 0 0 Z " fill="#1567E4" transform="translate(175,69)"/>
<path d="M0 0 C0.99 0.33 1.98 0.66 3 1 C1.02 3.97 1.02 3.97 -1 7 C-1.66 5.68 -2.32 4.36 -3 3 C-2.01 3 -1.02 3 0 3 C0 2.01 0 1.02 0 0 Z " fill="#226BD1" transform="translate(325,100)"/>
</svg>
